<mxfile host="Electron" agent="Mozilla/5.0 (Windows NT 10.0; Win64; x64) AppleWebKit/537.36 (KHTML, like Gecko) draw.io/24.7.5 Chrome/126.0.6478.183 Electron/31.3.0 Safari/537.36" version="24.7.5">
  <diagram name="Страница — 1" id="VITqMJHGawG_AV4IwLpY">
    <mxGraphModel dx="1498" dy="428" grid="1" gridSize="10" guides="1" tooltips="1" connect="1" arrows="1" fold="1" page="0" pageScale="1" pageWidth="827" pageHeight="1169" math="0" shadow="0">
      <root>
        <mxCell id="0" />
        <mxCell id="1" parent="0" />
        <mxCell id="oMOa3SXm_goFEWfaKYYf-7" style="edgeStyle=none;curved=1;rounded=0;orthogonalLoop=1;jettySize=auto;html=1;fontSize=12;startSize=8;endSize=8;endArrow=none;startFill=0;" parent="1" source="JWygc2-lEyXVkWZMa3_q-1" target="oMOa3SXm_goFEWfaKYYf-3" edge="1">
          <mxGeometry relative="1" as="geometry" />
        </mxCell>
        <mxCell id="JWygc2-lEyXVkWZMa3_q-1" value="Пользователь&lt;div&gt;(владелец&amp;nbsp;&lt;span style=&quot;background-color: initial;&quot;&gt;растений)&lt;/span&gt;&lt;/div&gt;" style="shape=umlActor;verticalLabelPosition=bottom;verticalAlign=top;html=1;" parent="1" vertex="1">
          <mxGeometry x="-30" y="653" width="30" height="60" as="geometry" />
        </mxCell>
        <mxCell id="oMOa3SXm_goFEWfaKYYf-2" value=":База данных растений" style="html=1;whiteSpace=wrap;" parent="1" vertex="1">
          <mxGeometry x="535" y="656.5" width="110" height="50" as="geometry" />
        </mxCell>
        <mxCell id="oMOa3SXm_goFEWfaKYYf-8" style="edgeStyle=none;curved=1;rounded=0;orthogonalLoop=1;jettySize=auto;html=1;fontSize=12;startSize=8;endSize=8;strokeColor=default;align=center;verticalAlign=middle;fontFamily=Helvetica;fontColor=default;labelBackgroundColor=default;startFill=0;endArrow=none;" parent="1" source="oMOa3SXm_goFEWfaKYYf-3" target="oMOa3SXm_goFEWfaKYYf-2" edge="1">
          <mxGeometry relative="1" as="geometry" />
        </mxCell>
        <mxCell id="oMOa3SXm_goFEWfaKYYf-3" value=":Система мониторинга здоровья растений" style="html=1;whiteSpace=wrap;" parent="1" vertex="1">
          <mxGeometry x="256" y="653" width="124" height="57" as="geometry" />
        </mxCell>
        <mxCell id="oMOa3SXm_goFEWfaKYYf-9" value="1. Ввести данные для входа&lt;div&gt;5. Запросить список растений&lt;/div&gt;&lt;div&gt;9. Выставить дату полива&lt;/div&gt;" style="html=1;verticalAlign=bottom;endArrow=block;curved=0;rounded=0;strokeColor=default;align=center;fontFamily=Helvetica;fontSize=12;fontColor=default;labelBackgroundColor=default;edgeStyle=none;startSize=8;endSize=8;" parent="1" edge="1">
          <mxGeometry x="-0.0036" y="19" width="80" relative="1" as="geometry">
            <mxPoint x="100" y="660" as="sourcePoint" />
            <mxPoint x="200" y="660" as="targetPoint" />
            <mxPoint as="offset" />
          </mxGeometry>
        </mxCell>
        <mxCell id="oMOa3SXm_goFEWfaKYYf-10" value="6. Получить список растений&lt;br&gt;&lt;div&gt;10. Сохранить дату полива&lt;/div&gt;" style="html=1;verticalAlign=bottom;endArrow=block;curved=0;rounded=0;strokeColor=default;align=center;fontFamily=Helvetica;fontSize=12;fontColor=default;labelBackgroundColor=default;edgeStyle=none;startSize=8;endSize=8;" parent="1" edge="1">
          <mxGeometry x="0.05" y="19" width="80" relative="1" as="geometry">
            <mxPoint x="410" y="671" as="sourcePoint" />
            <mxPoint x="497" y="671" as="targetPoint" />
            <mxPoint as="offset" />
          </mxGeometry>
        </mxCell>
        <mxCell id="oMOa3SXm_goFEWfaKYYf-12" value="&lt;div&gt;7. Вернуть список растений&lt;/div&gt;&lt;div&gt;11. Вернуть карточку растения&lt;/div&gt;" style="html=1;verticalAlign=bottom;endArrow=block;curved=0;rounded=0;strokeColor=default;align=center;fontFamily=Helvetica;fontSize=12;fontColor=default;labelBackgroundColor=default;edgeStyle=none;startSize=8;endSize=8;" parent="1" edge="1">
          <mxGeometry x="-0.1494" y="60" width="80" relative="1" as="geometry">
            <mxPoint x="497" y="690" as="sourcePoint" />
            <mxPoint x="410" y="690" as="targetPoint" />
            <mxPoint as="offset" />
          </mxGeometry>
        </mxCell>
        <mxCell id="oMOa3SXm_goFEWfaKYYf-13" value="&lt;div&gt;4. Вход в систему&lt;/div&gt;&lt;div&gt;8. Получить список растений&lt;/div&gt;&lt;div&gt;12. Получить карточку растения&lt;/div&gt;" style="html=1;verticalAlign=bottom;endArrow=block;curved=0;rounded=0;strokeColor=default;align=center;fontFamily=Helvetica;fontSize=12;fontColor=default;labelBackgroundColor=default;edgeStyle=none;startSize=8;endSize=8;" parent="1" edge="1">
          <mxGeometry y="50" width="80" relative="1" as="geometry">
            <mxPoint x="200" y="700" as="sourcePoint" />
            <mxPoint x="100" y="700" as="targetPoint" />
            <mxPoint as="offset" />
          </mxGeometry>
        </mxCell>
<<<<<<< HEAD
        <mxCell id="jDP7XRf8knhhoj4baCWg-1" value=":База данных пользователей" style="html=1;whiteSpace=wrap;" vertex="1" parent="1">
          <mxGeometry x="263" y="850" width="110" height="50" as="geometry" />
        </mxCell>
        <mxCell id="jDP7XRf8knhhoj4baCWg-2" style="edgeStyle=none;curved=1;rounded=0;orthogonalLoop=1;jettySize=auto;html=1;fontSize=12;startSize=8;endSize=8;endArrow=none;startFill=0;" edge="1" parent="1" source="jDP7XRf8knhhoj4baCWg-1" target="oMOa3SXm_goFEWfaKYYf-3">
=======
        <mxCell id="jDP7XRf8knhhoj4baCWg-1" value=":База данных пользователей" style="html=1;whiteSpace=wrap;" parent="1" vertex="1">
          <mxGeometry x="263" y="850" width="110" height="50" as="geometry" />
        </mxCell>
        <mxCell id="jDP7XRf8knhhoj4baCWg-2" style="edgeStyle=none;curved=1;rounded=0;orthogonalLoop=1;jettySize=auto;html=1;fontSize=12;startSize=8;endSize=8;endArrow=none;startFill=0;" parent="1" source="jDP7XRf8knhhoj4baCWg-1" target="oMOa3SXm_goFEWfaKYYf-3" edge="1">
>>>>>>> 89c8e0120a22f55452d37e5a40fb51ab2be012f1
          <mxGeometry relative="1" as="geometry">
            <mxPoint x="30" y="693" as="sourcePoint" />
            <mxPoint x="266" y="692" as="targetPoint" />
          </mxGeometry>
        </mxCell>
<<<<<<< HEAD
        <mxCell id="jDP7XRf8knhhoj4baCWg-3" value="2. Проверить данные на&lt;div&gt;корректность&lt;/div&gt;" style="html=1;verticalAlign=bottom;endArrow=block;curved=0;rounded=0;strokeColor=default;align=center;fontFamily=Helvetica;fontSize=12;fontColor=default;labelBackgroundColor=default;edgeStyle=none;startSize=8;endSize=8;" edge="1" parent="1">
=======
        <mxCell id="jDP7XRf8knhhoj4baCWg-3" value="2. Проверить данные на&lt;div&gt;корректность&lt;/div&gt;" style="html=1;verticalAlign=bottom;endArrow=block;curved=0;rounded=0;strokeColor=default;align=center;fontFamily=Helvetica;fontSize=12;fontColor=default;labelBackgroundColor=default;edgeStyle=none;startSize=8;endSize=8;" parent="1" edge="1">
>>>>>>> 89c8e0120a22f55452d37e5a40fb51ab2be012f1
          <mxGeometry x="0.4" y="-80" width="80" relative="1" as="geometry">
            <mxPoint x="300" y="730" as="sourcePoint" />
            <mxPoint x="300" y="830" as="targetPoint" />
            <mxPoint as="offset" />
          </mxGeometry>
        </mxCell>
<<<<<<< HEAD
        <mxCell id="jDP7XRf8knhhoj4baCWg-4" value="3. Вернуть информацию&lt;div&gt;о пользователе&lt;/div&gt;" style="html=1;verticalAlign=bottom;endArrow=block;curved=0;rounded=0;strokeColor=default;align=center;fontFamily=Helvetica;fontSize=12;fontColor=default;labelBackgroundColor=default;edgeStyle=none;startSize=8;endSize=8;" edge="1" parent="1">
=======
        <mxCell id="jDP7XRf8knhhoj4baCWg-4" value="3. Вернуть информацию&lt;div&gt;о пользователе&lt;/div&gt;" style="html=1;verticalAlign=bottom;endArrow=block;curved=0;rounded=0;strokeColor=default;align=center;fontFamily=Helvetica;fontSize=12;fontColor=default;labelBackgroundColor=default;edgeStyle=none;startSize=8;endSize=8;" parent="1" edge="1">
>>>>>>> 89c8e0120a22f55452d37e5a40fb51ab2be012f1
          <mxGeometry x="-0.6" y="-80" width="80" relative="1" as="geometry">
            <mxPoint x="340" y="830" as="sourcePoint" />
            <mxPoint x="340" y="730" as="targetPoint" />
            <mxPoint as="offset" />
          </mxGeometry>
        </mxCell>
      </root>
    </mxGraphModel>
  </diagram>
</mxfile>
